# xmcd CD database file
# Copyright (C) 1993-1998 Ti Kan
#
# Track frame offsets:
#	182
#	16152
#	32372
#	47602
#	77270
#	99687
#	107052
#	151680
#	166807
#
# Disc length: 2354 seconds
#
# Revision: 1
# Processed by: cddbd v1.4b41PL1 Copyright (c) Steve Scherf et al.
# Submitted via: CDValet v3.31 - Copyright (c) 1997 Greg Leichner
#
DISCID=50093009
DTITLE=Climax Chicago - Tightly Knit
DYEAR=1900
DGENRE=
TTITLE0=Hey Mama
TTITLE1=Shoot Her If She Runs
TTITLE2=Towards The Sun
TTITLE3=Come On In My Kitchen
TTITLE4=Who Killed McSwiggen
TTITLE5=Little Link
TTITLE6=St. Michael's Blues
TTITLE7=Bide My Time
TTITLE8=That's All
EXTD=
EXTT0=
EXTT1=
EXTT2=
EXTT3=
EXTT4=
EXTT5=
EXTT6=
EXTT7=
EXTT8=
PLAYORDER=
